<svg width="28" height="28" viewBox="0 0 28 28" fill="none" xmlns="http://www.w3.org/2000/svg">
<g clip-path="url(#clip0_617_986)">
<path d="M27.1217 14.0797C27.1208 6.83384 21.2469 0.959961 14.0002 0.959961C6.75341 0.959961 0.878662 6.83471 0.878662 14.0815C0.878662 20.6046 5.63866 26.0156 11.8739 27.0315L11.9492 27.042V17.8737H8.61716V14.0797H11.9492V11.1905C11.9325 11.0443 11.9238 10.8746 11.9238 10.7031C11.9238 8.14546 13.9975 6.07171 16.5552 6.07171C16.6785 6.07171 16.801 6.07696 16.9227 6.08571L16.9069 6.08484C17.956 6.09971 18.971 6.19246 19.9615 6.35784L19.8443 6.34121V9.56996H18.1888C18.1135 9.55946 18.0269 9.55334 17.9394 9.55334C16.892 9.55334 16.0424 10.4021 16.0424 11.4503C16.0424 11.5098 16.045 11.5685 16.0503 11.6271L16.0494 11.6192V14.0797H19.6885L19.1067 17.8737H16.0494V27.042C22.3608 26.0147 27.1208 20.6028 27.1217 14.0797Z" fill="#FBFEFC"/>
</g>
<defs>
<clipPath id="clip0_617_986">
<rect width="28" height="28" fill="white"/>
</clipPath>
</defs>
</svg>
