<svg width="21" height="20" viewBox="0 0 21 20" fill="none" xmlns="http://www.w3.org/2000/svg">
<path d="M9.03613 10H12.7861C12.7861 12.071 11.1072 13.75 9.03613 13.75C6.96509 13.75 5.28613 12.071 5.28613 10C5.28613 7.92896 6.96509 6.25 9.03613 6.25C10.0717 6.25 11.0092 6.66979 11.6878 7.34833" stroke="#FBFEFC" stroke-width="1.25" stroke-linecap="round" stroke-linejoin="round"/>
<path d="M15.4234 6.93311C15.3516 6.78371 15.2234 6.66898 15.0669 6.61413C14.9105 6.55929 14.7387 6.56883 14.5893 6.64066C14.4399 6.71249 14.3252 6.84072 14.2703 6.99715C14.2155 7.15357 14.225 7.32538 14.2969 7.47477L15.4234 6.93311ZM14.2969 12.5238C14.225 12.6732 14.2155 12.845 14.2703 13.0015C14.3251 13.1579 14.4399 13.2862 14.5893 13.358C14.7387 13.4298 14.9105 13.4394 15.0669 13.3846C15.2233 13.3297 15.3516 13.215 15.4234 13.0656L14.2969 12.5238ZM12.6031 5.383C12.668 5.43384 12.7422 5.47135 12.8216 5.49337C12.9011 5.5154 12.984 5.5215 13.0658 5.51133C13.1476 5.50117 13.2265 5.47493 13.2981 5.43413C13.3697 5.39334 13.4325 5.33878 13.483 5.27362C13.5334 5.20845 13.5705 5.13395 13.592 5.05441C13.6135 4.97487 13.6191 4.89186 13.6084 4.81015C13.5978 4.72844 13.571 4.64965 13.5298 4.57831C13.4885 4.50697 13.4336 4.44449 13.3681 4.39446L12.6031 5.383ZM13.3681 15.6043C13.4981 15.5024 13.5824 15.3533 13.6028 15.1895C13.6231 15.0256 13.5779 14.8604 13.4768 14.7299C13.3758 14.5993 13.2272 14.514 13.0635 14.4926C12.8998 14.4712 12.7343 14.5155 12.6031 14.6157L13.3681 15.6043ZM9.03646 15.8327C5.81479 15.8327 3.20312 13.221 3.20312 9.99936H1.95312C1.95312 13.9113 5.12448 17.0827 9.03646 17.0827V15.8327ZM3.20312 9.99936C3.20312 6.77769 5.81479 4.16602 9.03646 4.16602V2.91602C5.12448 2.91602 1.95312 6.08738 1.95312 9.99936H3.20312ZM14.2969 7.47477C14.6639 8.23779 14.8698 9.09373 14.8698 9.99936H16.1198C16.1198 8.90227 15.8699 7.86165 15.4234 6.93311L14.2969 7.47477ZM14.8698 9.99936C14.8698 10.905 14.6639 11.7607 14.2969 12.5238L15.4234 13.0656C15.8699 12.1371 16.1198 11.0964 16.1198 9.99936H14.8698ZM9.03646 4.16602C10.3805 4.16602 11.6169 4.61988 12.6031 5.383L13.3681 4.39446C12.1286 3.43399 10.6045 2.91379 9.03646 2.91602V4.16602ZM12.6031 14.6157C11.6169 15.3788 10.3805 15.8327 9.03646 15.8327V17.0827C10.6045 17.0849 12.1286 16.5647 13.3681 15.6043L12.6031 14.6157Z" fill="#FBFEFC"/>
<path d="M17.1143 6.12305C17.6784 7.29638 17.9946 8.61159 17.9946 10.0005C17.9946 11.3895 17.6784 12.7047 17.1143 13.8779" stroke="#FBFEFC" stroke-width="1.25" stroke-linecap="round" stroke-linejoin="round"/>
</svg>
