<svg width="28" height="28" viewBox="0 0 28 28" fill="none" xmlns="http://www.w3.org/2000/svg">
<g clip-path="url(#clip0_617_988)">
<path d="M22.5793 6.99593V6.9968C22.5793 7.86655 21.874 8.57093 21.0052 8.57093C20.1363 8.57093 19.431 7.86568 19.431 6.9968C19.431 6.12705 20.1363 5.42268 21.0052 5.42268C21.874 5.42355 22.5784 6.12705 22.5793 6.99593ZM13.9999 18.3736C11.584 18.3736 9.62579 16.4153 9.62579 13.9994C9.62579 11.5836 11.584 9.62531 13.9999 9.62531C16.4158 9.62531 18.374 11.5836 18.374 13.9994C18.374 16.4144 16.4167 18.3727 14.0017 18.3727H14.0008L13.9999 18.3736ZM13.9999 7.26193C10.2785 7.26193 7.26242 10.2789 7.26242 13.9994C7.26242 17.7199 10.2794 20.7369 13.9999 20.7369C17.7213 20.7369 20.7374 17.7199 20.7374 13.9994C20.7374 13.9994 20.7374 13.9994 20.7374 13.9986C20.7374 10.2781 17.7213 7.26105 13.9999 7.26105C13.9999 7.26105 13.9999 7.26105 13.999 7.26105L13.9999 7.26193ZM13.9999 3.24043C17.5025 3.24043 17.9199 3.25793 19.3033 3.3183C20.1809 3.3288 21.0157 3.49505 21.7883 3.78905L21.7384 3.77243C22.8882 4.22043 23.7807 5.11293 24.219 6.23293L24.2295 6.26268C24.506 6.98543 24.6705 7.82105 24.681 8.69343V8.6978C24.7432 10.0821 24.7572 10.4977 24.7572 14.0012C24.7572 17.5047 24.7405 17.9212 24.6767 19.3046C24.66 20.1831 24.4929 21.0178 24.1998 21.7904L24.2164 21.7397C23.9907 22.3312 23.6564 22.8352 23.2338 23.2499L23.2329 23.2508C22.819 23.6743 22.315 24.0086 21.7524 24.2212L21.7244 24.2308C20.999 24.5073 20.1608 24.6718 19.2849 24.6823H19.2805C17.8875 24.7444 17.4772 24.7584 13.9675 24.7584C10.4562 24.7584 10.0467 24.7418 8.65454 24.6779C7.77254 24.6613 6.93429 24.4942 6.15817 24.2011L6.20979 24.2177C5.61829 23.9954 5.11429 23.6603 4.70304 23.2359L4.70217 23.2351C4.27429 22.8238 3.93829 22.3189 3.72742 21.7537L3.71867 21.7266C3.44304 21.0021 3.27592 20.1647 3.25929 19.2897V19.2827C3.21029 17.9046 3.19279 17.4793 3.19279 13.9863C3.19279 10.4916 3.21029 10.0654 3.25929 8.67068C3.27592 7.78955 3.44217 6.95218 3.73529 6.17693L3.71867 6.22855C3.93479 5.63443 4.27167 5.12868 4.70129 4.72005L4.70304 4.7183C5.11254 4.2878 5.61742 3.95268 6.18354 3.7453L6.21067 3.73655C6.93079 3.4583 7.76292 3.29118 8.63267 3.2763H8.63879C10.0327 3.2273 10.443 3.21068 13.9518 3.21068L13.9999 3.24043ZM13.9999 0.87793C10.4352 0.87793 9.99067 0.894555 8.59067 0.95668C7.44004 0.98118 6.34892 1.20343 5.33917 1.5893L5.40567 1.56743C4.49567 1.9148 3.72042 2.43018 3.08167 3.07943L3.08079 3.0803C2.42892 3.71905 1.91442 4.49518 1.58192 5.36143L1.56704 5.40518C1.20304 6.34843 0.980793 7.44043 0.957168 8.57968V8.59018C0.891543 9.99018 0.878418 10.4347 0.878418 13.9994C0.878418 17.5642 0.895043 18.0087 0.957168 19.4087C0.981668 20.5593 1.20392 21.6504 1.58979 22.6602L1.56792 22.5937C2.26442 24.3621 3.63729 25.7349 5.36017 26.4157L5.40567 26.4314C6.34892 26.7946 7.44092 27.0168 8.58017 27.0413H8.59067C9.99067 27.1069 10.4352 27.1201 13.9999 27.1201C17.5647 27.1201 18.0092 27.1034 19.4092 27.0413C20.5598 27.0159 21.6509 26.7946 22.6607 26.4087L22.5942 26.4314C24.3625 25.7349 25.7354 24.3621 26.4162 22.6392L26.4319 22.5937C26.7959 21.6504 27.0173 20.5584 27.0418 19.4192V19.4087C27.1074 18.0087 27.1205 17.5642 27.1205 13.9994C27.1205 10.4347 27.1039 9.99018 27.0418 8.59018C27.0164 7.43955 26.795 6.34843 26.4092 5.33868L26.4319 5.40518C26.0837 4.49518 25.5692 3.71993 24.919 3.08118L24.9182 3.0803C24.2794 2.42843 23.5033 1.91393 22.637 1.58143L22.5933 1.56655C21.65 1.20255 20.558 0.980305 19.4188 0.95668H19.4083C18.0083 0.891055 17.5638 0.87793 13.999 0.87793H13.9999Z" fill="#FBFEFC"/>
</g>
<defs>
<clipPath id="clip0_617_988">
<rect width="28" height="28" fill="white"/>
</clipPath>
</defs>
</svg>
