<svg width="21" height="20" viewBox="0 0 21 20" fill="none" xmlns="http://www.w3.org/2000/svg">
<g clip-path="url(#clip0_644_1152)">
<path d="M10.1427 5.45609C10.0677 5.51484 9.99516 5.57297 9.92453 5.63609C8.70266 6.70172 7.93453 8.26109 7.93453 9.99984C7.93453 11.7386 8.70203 13.298 9.91703 14.358L9.92391 14.3636C9.99391 14.4261 10.0683 14.4867 10.142 14.5448C10.217 14.4873 10.2895 14.4261 10.3602 14.3636C11.582 13.298 12.3495 11.7386 12.3495 9.99984C12.3495 8.26109 11.582 6.70172 10.367 5.64172L10.3602 5.63609C10.2902 5.57359 10.2164 5.51422 10.142 5.45609H10.1427ZM13.7183 4.21547C13.7152 4.21547 13.7114 4.21547 13.707 4.21547C12.5177 4.21547 11.4133 4.57609 10.4958 5.19422L10.5164 5.18109C10.5633 5.21797 10.6058 5.25672 10.6445 5.29734L10.6452 5.29797C11.9677 6.44547 12.7989 8.12797 12.7989 10.0048C12.7989 11.8773 11.972 13.5561 10.6633 14.6967L10.6558 14.703C10.6108 14.7411 10.562 14.7792 10.5145 14.8167C11.4152 15.423 12.5245 15.7848 13.7177 15.7848C16.9127 15.7848 19.5027 13.1948 19.5027 9.99984C19.5027 6.80484 16.9133 4.21609 13.7183 4.21547ZM9.63016 14.7036C9.67516 14.7417 9.72391 14.7798 9.77141 14.8173C8.87141 15.423 7.76266 15.7842 6.56953 15.7842C3.37453 15.7842 0.785156 13.1942 0.785156 9.99984C0.785156 6.80547 3.37516 4.21547 6.56953 4.21547C7.76141 4.21547 8.86953 4.57609 9.79016 5.19422L9.76953 5.18109C9.72266 5.21797 9.68016 5.25672 9.64141 5.29734L9.64078 5.29797C8.31828 6.44547 7.48703 8.12797 7.48703 10.0048C7.48703 11.8773 8.31391 13.5561 9.62266 14.6967L9.63016 14.7036Z" fill="#FBFEFC"/>
</g>
<defs>
<clipPath id="clip0_644_1152">
<rect width="20" height="20" fill="white" transform="translate(0.142578)"/>
</clipPath>
</defs>
</svg>
