<svg width="20" height="20" viewBox="0 0 20 20" fill="none" xmlns="http://www.w3.org/2000/svg">
<path d="M17.192 6.0359C17.0527 5.87777 16.897 5.7384 16.727 5.61965L16.7189 5.61402C16.7089 5.6734 16.6989 5.75027 16.687 5.81215C15.9614 9.53902 13.5633 11.4284 9.55953 11.4284H7.85141C7.63203 11.4284 7.45078 11.5896 7.41828 11.7996L7.41766 11.8021L6.49203 17.6728H6.09766L5.91016 18.8553C5.90703 18.8759 5.90516 18.899 5.90516 18.9234C5.90516 19.1646 6.10078 19.3603 6.34203 19.3603H6.34266H9.37016C9.73203 19.3603 10.0327 19.0959 10.0883 18.7496L10.0889 18.7453C10.1358 18.5428 10.6814 14.9609 10.7252 14.7753C10.7814 14.4253 11.0814 14.1609 11.4433 14.1609H11.4452H11.8977C14.8302 14.1609 17.127 12.969 17.7983 9.5234C17.9052 9.18215 17.9664 8.79027 17.9664 8.38402C17.9664 7.50027 17.6758 6.68402 17.1845 6.0259L17.192 6.03652V6.0359ZM6.15891 17.2828H2.56641C2.29016 17.2828 2.06641 17.059 2.06641 16.7828C2.06641 16.7553 2.06828 16.729 2.07266 16.7028L2.07203 16.7059L4.49516 1.34402C4.56016 0.943398 4.90328 0.641523 5.31703 0.641523H11.1358C11.3208 0.620898 11.5345 0.608398 11.7514 0.608398C13.2195 0.608398 14.5602 1.1559 15.5795 2.0584L15.5733 2.05277C16.1345 2.70027 16.477 3.55152 16.477 4.48215C16.477 4.80715 16.4352 5.12215 16.357 5.42215L16.3627 5.39652C16.3445 5.50777 16.3258 5.6209 16.3027 5.73715C15.5358 9.6759 12.9108 11.0384 9.55828 11.0384H7.85016C7.43766 11.039 7.09516 11.3409 7.03203 11.7359L7.03141 11.7409L6.15891 17.2828Z" fill="#FBFEFC"/>
</svg>
