<svg width="28" height="28" viewBox="0 0 28 28" fill="none" xmlns="http://www.w3.org/2000/svg">
<path d="M14.5739 0.900781C16.0063 0.878906 17.4282 0.890281 18.8492 0.878906C18.8964 2.65603 19.6174 4.25553 20.7646 5.44028L20.7628 5.43853C21.9974 6.55066 23.6039 7.27166 25.3749 7.39416L25.3994 7.39591V11.8024C23.7264 11.7604 22.1532 11.3745 20.7348 10.7113L20.8066 10.741C20.1206 10.4112 19.5404 10.0725 18.9892 9.69453L19.0347 9.72428C19.0242 12.9172 19.0452 16.11 19.0128 19.2915C18.9227 20.9129 18.3837 22.3917 17.5192 23.6263L17.5367 23.5992C16.0912 25.6694 13.7497 27.0283 11.0871 27.1088H11.0748C10.9672 27.114 10.8403 27.1167 10.7126 27.1167C9.19882 27.1167 7.78394 26.6949 6.57819 25.9625L6.61319 25.9827C4.41869 24.6623 2.90494 22.403 2.62494 19.7754L2.62144 19.7395C2.59957 19.1927 2.58907 18.6458 2.61094 18.1103C3.03969 13.9287 6.54319 10.6938 10.8018 10.6938C11.2804 10.6938 11.7494 10.7349 12.2053 10.8128L12.1563 10.8058C12.1782 12.4237 12.1126 14.0424 12.1126 15.6603C11.7424 15.5264 11.3154 15.4485 10.8701 15.4485C9.23557 15.4485 7.84519 16.4933 7.33069 17.9519L7.32282 17.9782C7.20644 18.3518 7.13907 18.7814 7.13907 19.2259C7.13907 19.4062 7.15044 19.5847 7.17144 19.7597L7.16969 19.7387C7.46019 21.5289 8.99494 22.8799 10.8456 22.8799C10.8989 22.8799 10.9514 22.879 11.0039 22.8764H10.9961C12.2762 22.8379 13.3874 22.1493 14.0157 21.1317L14.0244 21.1159C14.2581 20.7904 14.4182 20.3967 14.4716 19.9688L14.4724 19.9565C14.5818 17.9992 14.5381 16.0532 14.5486 14.0958C14.5591 9.68928 14.5381 5.29328 14.5704 0.898156L14.5739 0.900781Z" fill="#FBFEFC"/>
</svg>
