<svg width="21" height="20" viewBox="0 0 21 20" fill="none" xmlns="http://www.w3.org/2000/svg">
<path d="M10.3369 7.08043L9.08504 12.9348H7.57004L8.82379 7.08043H10.3369ZM16.71 10.8604L17.5069 8.66168L17.9663 10.8604H16.71ZM18.3994 12.9348H19.8007L18.5782 7.08043H17.285C17.2832 7.08043 17.2807 7.08043 17.2788 7.08043C16.9919 7.08043 16.7457 7.25605 16.6419 7.50543L16.64 7.5098L14.3682 12.9348H15.9582L16.2744 12.0598H18.2175L18.3994 12.9348ZM14.4463 11.0236C14.4525 9.47793 12.3094 9.39293 12.3244 8.7023C12.3294 8.4923 12.5288 8.26855 12.9663 8.21168C13.0475 8.20355 13.1413 8.19855 13.2363 8.19855C13.6807 8.19855 14.1019 8.2998 14.4769 8.48105L14.46 8.47355L14.7257 7.23168C14.305 7.06855 13.8182 6.97355 13.3094 6.97168H13.3088C11.8113 6.97168 10.7582 7.76855 10.7488 8.90793C10.7394 9.75043 11.5007 10.2198 12.075 10.5011C12.6657 10.7879 12.8638 10.9723 12.8607 11.2279C12.8569 11.6217 12.3907 11.7942 11.9544 11.8011C11.9344 11.8017 11.91 11.8017 11.8863 11.8017C11.3419 11.8017 10.8294 11.6648 10.3819 11.4229L10.3988 11.4311L10.1244 12.7136C10.6157 12.9104 11.185 13.0242 11.7813 13.0242C11.7907 13.0242 11.8 13.0242 11.8094 13.0242H11.8082C13.3994 13.0242 14.44 12.2386 14.4457 11.0217L14.4463 11.0236ZM8.17254 7.08043L5.71879 12.9348H4.11754L2.91004 8.26168C2.88691 8.03418 2.74754 7.84418 2.55379 7.74918L2.55004 7.7473C2.12004 7.53605 1.62004 7.36418 1.09691 7.25605L1.05566 7.24918L1.09191 7.0798H3.66941C4.02066 7.0798 4.31254 7.33668 4.36691 7.6723L4.36754 7.67605L5.00566 11.0642L6.58191 7.07918L8.17254 7.08043Z" fill="#FBFEFC"/>
</svg>
