<svg width="28" height="28" viewBox="0 0 28 28" fill="none" xmlns="http://www.w3.org/2000/svg">
<path d="M11.3154 17.902V10.0996L18.1745 14.0013L11.3154 17.902ZM26.5719 7.64352C26.2622 6.50515 25.3872 5.6249 24.275 5.3134L24.2514 5.30815C21.4575 4.9529 18.2262 4.7499 14.9467 4.7499C14.6133 4.7499 14.2808 4.75165 13.9492 4.75602L13.9999 4.75515C13.7182 4.75165 13.3865 4.74902 13.0532 4.74902C9.77367 4.74902 6.54054 4.95202 3.36692 5.3449L3.74667 5.3064C2.61179 5.62402 1.73679 6.5034 1.43317 7.61902L1.42792 7.64177C1.07792 9.48715 0.878418 11.6108 0.878418 13.7808C0.878418 13.8578 0.878418 13.9348 0.879293 14.0109V13.9986C0.879293 14.0634 0.878418 14.1404 0.878418 14.2174C0.878418 16.3874 1.07879 18.5101 1.46117 20.569L1.42792 20.3555C1.73767 21.4939 2.61267 22.3741 3.72479 22.6856L3.74842 22.6909C6.54229 23.0461 9.77367 23.2491 13.0532 23.2491C13.3857 23.2491 13.7182 23.2474 14.0507 23.243L13.9999 23.2439C14.2817 23.2474 14.6142 23.25 14.9467 23.25C18.227 23.25 21.4593 23.047 24.6329 22.6541L24.2532 22.6926C25.3889 22.3759 26.2639 21.4956 26.5684 20.38L26.5737 20.3573C26.9228 18.5119 27.1223 16.3883 27.1223 14.2191C27.1223 14.1421 27.1223 14.0651 27.1214 13.989V14.0004C27.1214 13.9356 27.1223 13.8586 27.1223 13.7816C27.1223 11.6116 26.9219 9.4889 26.5395 7.43002L26.5719 7.64352Z" fill="#FBFEFC"/>
</svg>
